<mxfile host="65bd71144e">
    <diagram id="7zW7vxh5Hjt1YSIZ8UYE" name="Page-1">
        <mxGraphModel dx="2310" dy="1298" grid="1" gridSize="10" guides="1" tooltips="1" connect="1" arrows="0" fold="1" page="1" pageScale="1" pageWidth="1169" pageHeight="1654" math="0" shadow="0">
            <root>
                <mxCell id="0"/>
                <mxCell id="1" parent="0"/>
                <mxCell id="2" value="Toolbar" style="rounded=0;whiteSpace=wrap;html=1;" vertex="1" parent="1">
                    <mxGeometry x="40" y="100" width="240" height="1310" as="geometry"/>
                </mxCell>
                <mxCell id="3" value="Navigation" style="rounded=0;whiteSpace=wrap;html=1;" vertex="1" parent="1">
                    <mxGeometry x="280" y="100" width="840" height="60" as="geometry"/>
                </mxCell>
                <mxCell id="4" value="" style="rounded=0;whiteSpace=wrap;html=1;" vertex="1" parent="1">
                    <mxGeometry x="280" y="160" width="840" height="1250" as="geometry"/>
                </mxCell>
                <mxCell id="5" value="Project Management Dashboard" style="text;html=1;align=left;verticalAlign=middle;resizable=0;points=[];autosize=1;strokeColor=none;fillColor=none;fontSize=18;" vertex="1" parent="1">
                    <mxGeometry x="305" y="185" width="280" height="40" as="geometry"/>
                </mxCell>
                <mxCell id="6" value="" style="rounded=1;whiteSpace=wrap;html=1;" vertex="1" parent="1">
                    <mxGeometry x="305" y="250" width="240" height="90" as="geometry"/>
                </mxCell>
                <mxCell id="7" value="" style="rounded=1;whiteSpace=wrap;html=1;" vertex="1" parent="1">
                    <mxGeometry x="580" y="250" width="240" height="90" as="geometry"/>
                </mxCell>
                <mxCell id="8" value="" style="rounded=1;whiteSpace=wrap;html=1;" vertex="1" parent="1">
                    <mxGeometry x="850" y="250" width="240" height="90" as="geometry"/>
                </mxCell>
                <mxCell id="9" value="Projects" style="text;html=1;align=left;verticalAlign=middle;resizable=0;points=[];autosize=1;strokeColor=none;fillColor=none;fontSize=18;" vertex="1" parent="1">
                    <mxGeometry x="317.5" y="250" width="90" height="40" as="geometry"/>
                </mxCell>
                <mxCell id="10" value="&amp;nbsp;Projects_list" style="rounded=1;whiteSpace=wrap;html=1;fontSize=18;align=left;" vertex="1" parent="1">
                    <mxGeometry x="317.5" y="290" width="170" height="40" as="geometry"/>
                </mxCell>
                <mxCell id="11" value="" style="html=1;verticalLabelPosition=bottom;labelBackgroundColor=#ffffff;verticalAlign=top;shadow=0;dashed=0;strokeWidth=1;shape=mxgraph.ios7.misc.down;rounded=1;glass=0;sketch=0;fontSize=8;fillColor=none;strokeColor=#FFFFFF;" vertex="1" parent="1">
                    <mxGeometry x="460" y="307" width="12" height="6" as="geometry"/>
                </mxCell>
                <mxCell id="13" value="Issue Density" style="text;html=1;align=left;verticalAlign=middle;resizable=0;points=[];autosize=1;strokeColor=none;fillColor=none;fontSize=18;" vertex="1" parent="1">
                    <mxGeometry x="587.5" y="250" width="130" height="40" as="geometry"/>
                </mxCell>
                <mxCell id="14" value="N/Module" style="text;html=1;align=left;verticalAlign=middle;resizable=0;points=[];autosize=1;strokeColor=none;fillColor=none;fontSize=18;" vertex="1" parent="1">
                    <mxGeometry x="587.5" y="290" width="100" height="40" as="geometry"/>
                </mxCell>
                <mxCell id="15" value="Issues&amp;nbsp;Gap Percentage" style="text;html=1;align=left;verticalAlign=middle;resizable=0;points=[];autosize=1;strokeColor=none;fillColor=none;fontSize=18;" vertex="1" parent="1">
                    <mxGeometry x="860" y="250" width="210" height="40" as="geometry"/>
                </mxCell>
                <mxCell id="16" value="XX.XX%" style="text;html=1;align=left;verticalAlign=middle;resizable=0;points=[];autosize=1;strokeColor=none;fillColor=none;fontSize=18;" vertex="1" parent="1">
                    <mxGeometry x="860" y="290" width="90" height="40" as="geometry"/>
                </mxCell>
                <mxCell id="17" value="" style="rounded=1;whiteSpace=wrap;html=1;fontSize=18;arcSize=2;" vertex="1" parent="1">
                    <mxGeometry x="305" y="370" width="375" height="420" as="geometry"/>
                </mxCell>
                <mxCell id="18" value="Issues&amp;nbsp;by Status" style="text;html=1;align=left;verticalAlign=middle;resizable=0;points=[];autosize=1;strokeColor=none;fillColor=none;fontSize=18;" vertex="1" parent="1">
                    <mxGeometry x="317.5" y="380" width="160" height="40" as="geometry"/>
                </mxCell>
                <mxCell id="19" value="Statuses" style="rounded=1;whiteSpace=wrap;html=1;fontSize=18;fillStyle=hatch;fillColor=#FFFFFF;" vertex="1" parent="1">
                    <mxGeometry x="315.25" y="430" width="354.5" height="60" as="geometry"/>
                </mxCell>
                <mxCell id="20" value="Issues by status Pie Chart" style="rounded=1;whiteSpace=wrap;html=1;fillStyle=hatch;fontSize=18;fillColor=#FFFFFF;arcSize=2;" vertex="1" parent="1">
                    <mxGeometry x="315.25" y="510" width="354.5" height="270" as="geometry"/>
                </mxCell>
                <mxCell id="21" value="" style="rounded=1;whiteSpace=wrap;html=1;fontSize=18;arcSize=2;" vertex="1" parent="1">
                    <mxGeometry x="715" y="370" width="375" height="420" as="geometry"/>
                </mxCell>
                <mxCell id="22" value="Issues by Priority" style="text;html=1;align=left;verticalAlign=middle;resizable=0;points=[];autosize=1;strokeColor=none;fillColor=none;fontSize=18;" vertex="1" parent="1">
                    <mxGeometry x="730" y="380" width="160" height="40" as="geometry"/>
                </mxCell>
                <mxCell id="23" value="Priorities" style="rounded=1;whiteSpace=wrap;html=1;fontSize=18;fillStyle=hatch;fillColor=#FFFFFF;" vertex="1" parent="1">
                    <mxGeometry x="725.25" y="430" width="354.5" height="60" as="geometry"/>
                </mxCell>
                <mxCell id="24" value="Issues by priority Pie Chart" style="rounded=1;whiteSpace=wrap;html=1;fillStyle=hatch;fontSize=18;fillColor=#FFFFFF;arcSize=2;" vertex="1" parent="1">
                    <mxGeometry x="727.75" y="510" width="354.5" height="270" as="geometry"/>
                </mxCell>
                <mxCell id="25" value="" style="rounded=1;whiteSpace=wrap;html=1;fontSize=18;arcSize=2;" vertex="1" parent="1">
                    <mxGeometry x="305" y="827" width="785" height="563" as="geometry"/>
                </mxCell>
                <mxCell id="26" value="Assigned vs Resolved Issues by Assignee" style="text;html=1;align=left;verticalAlign=middle;resizable=0;points=[];autosize=1;strokeColor=none;fillColor=none;fontSize=18;" vertex="1" parent="1">
                    <mxGeometry x="317.5" y="837" width="360" height="40" as="geometry"/>
                </mxCell>
                <mxCell id="27" value="Legend" style="rounded=1;whiteSpace=wrap;html=1;fontSize=18;fillStyle=hatch;fillColor=#FFFFFF;" vertex="1" parent="1">
                    <mxGeometry x="526.25" y="887" width="342.5" height="60" as="geometry"/>
                </mxCell>
                <mxCell id="28" value="Assigned vs Resolved Issues by Assignee Bar Chart" style="rounded=1;whiteSpace=wrap;html=1;fillStyle=hatch;fontSize=18;fillColor=#FFFFFF;arcSize=2;" vertex="1" parent="1">
                    <mxGeometry x="373.75" y="967" width="652.5" height="403" as="geometry"/>
                </mxCell>
            </root>
        </mxGraphModel>
    </diagram>
</mxfile>